<svg xmlns="http://www.w3.org/2000/svg" width="41.143" height="24" viewBox="0 0 41.143 24">
  <g id="Icon_ionic-ios-menu" data-name="Icon ionic-ios-menu" transform="translate(-4.5 -10.125)">
    <path id="Path_9" data-name="Path 9" d="M43.929,13.554H6.214A1.719,1.719,0,0,1,4.5,11.839h0a1.719,1.719,0,0,1,1.714-1.714H43.929a1.719,1.719,0,0,1,1.714,1.714h0A1.719,1.719,0,0,1,43.929,13.554Z"/>
    <path id="Path_10" data-name="Path 10" d="M43.929,20.3H6.214A1.719,1.719,0,0,1,4.5,18.589h0a1.719,1.719,0,0,1,1.714-1.714H43.929a1.719,1.719,0,0,1,1.714,1.714h0A1.719,1.719,0,0,1,43.929,20.3Z" transform="translate(0 3.536)"/>
    <path id="Path_11" data-name="Path 11" d="M43.929,27.054H6.214A1.719,1.719,0,0,1,4.5,25.339h0a1.719,1.719,0,0,1,1.714-1.714H43.929a1.719,1.719,0,0,1,1.714,1.714h0A1.719,1.719,0,0,1,43.929,27.054Z" transform="translate(0 7.071)"/>
  </g>
</svg>
